<svg width="400" height="400" viewBox="0 0 400 400" fill="none" xmlns="http://www.w3.org/2000/svg">
  <!-- Background circle -->
  <circle cx="200" cy="200" r="180" fill="#0D1117"/>

  <!-- Outer glow effect -->
  <circle cx="200" cy="200" r="170" stroke="#00D4AA" stroke-width="1" opacity="0.2"/>
  <circle cx="200" cy="200" r="160" stroke="#00D4AA" stroke-width="1" opacity="0.3"/>
  <circle cx="200" cy="200" r="150" stroke="#00D4AA" stroke-width="2" opacity="0.4"/>

  <!-- Network nodes representing tracking points -->
  <g id="tracking-network" opacity="0.6">
    <!-- Connection lines -->
    <line x1="200" y1="200" x2="260" y2="140" stroke="#00D4AA" stroke-width="1.5" opacity="0.4"/>
    <line x1="200" y1="200" x2="140" y2="140" stroke="#00D4AA" stroke-width="1.5" opacity="0.4"/>
    <line x1="200" y1="200" x2="260" y2="260" stroke="#00D4AA" stroke-width="1.5" opacity="0.4"/>
    <line x1="200" y1="200" x2="140" y2="260" stroke="#00D4AA" stroke-width="1.5" opacity="0.4"/>
    <line x1="200" y1="200" x2="280" y2="200" stroke="#00D4AA" stroke-width="1.5" opacity="0.4"/>
    <line x1="200" y1="200" x2="120" y2="200" stroke="#00D4AA" stroke-width="1.5" opacity="0.4"/>

    <!-- Outer tracking nodes -->
    <circle cx="260" cy="140" r="6" fill="#00D4AA" opacity="0.7"/>
    <circle cx="140" cy="140" r="6" fill="#00D4AA" opacity="0.7"/>
    <circle cx="260" cy="260" r="6" fill="#00D4AA" opacity="0.7"/>
    <circle cx="140" cy="260" r="6" fill="#00D4AA" opacity="0.7"/>
    <circle cx="280" cy="200" r="6" fill="#00D4AA" opacity="0.7"/>
    <circle cx="120" cy="200" r="6" fill="#00D4AA" opacity="0.7"/>
  </g>

  <!-- Footprint shape (stylized) -->
  <g id="footprint" transform="translate(165, 165)">
    <!-- Main foot -->
    <ellipse cx="35" cy="45" rx="22" ry="35" fill="#00D4AA"/>

    <!-- Toes -->
    <circle cx="20" cy="15" r="8" fill="#00D4AA"/>
    <circle cx="35" cy="10" r="9" fill="#00D4AA"/>
    <circle cx="50" cy="12" r="8" fill="#00D4AA"/>
    <circle cx="62" cy="18" r="7" fill="#00D4AA"/>

    <!-- Echo/ripple effect around footprint -->
    <ellipse cx="35" cy="45" rx="30" ry="43" stroke="#00D4AA" stroke-width="2" fill="none" opacity="0.3"/>
    <ellipse cx="35" cy="45" rx="38" ry="51" stroke="#00D4AA" stroke-width="1.5" fill="none" opacity="0.2"/>
  </g>

  <!-- Radar sweep line (positioned at 45 degrees) -->
  <line x1="200" y1="200" x2="327" y2="73" stroke="#00D4AA" stroke-width="3" opacity="0.5" stroke-linecap="round"/>

  <!-- Center pulse point -->
  <circle cx="200" cy="200" r="8" fill="#00D4AA"/>
  <circle cx="200" cy="200" r="12" stroke="#00D4AA" stroke-width="2" fill="none" opacity="0.6"/>
</svg>
